<svg xmlns="http://www.w3.org/2000/svg"  viewBox="0 0 100 100" width="100px" height="100px"><path fill="#c7ede6" d="M87.215,56.71C88.35,54.555,89,52.105,89,49.5c0-6.621-4.159-12.257-10.001-14.478 C78.999,35.015,79,35.008,79,35c0-11.598-9.402-21-21-21c-9.784,0-17.981,6.701-20.313,15.757C36.211,29.272,34.638,29,33,29 c-7.692,0-14.023,5.793-14.89,13.252C12.906,43.353,9,47.969,9,53.5C9,59.851,14.149,65,20.5,65c0.177,0,0.352-0.012,0.526-0.022 C21.022,65.153,21,65.324,21,65.5C21,76.822,30.178,86,41.5,86c6.437,0,12.175-2.972,15.934-7.614C59.612,80.611,62.64,82,66,82 c4.65,0,8.674-2.65,10.666-6.518C77.718,75.817,78.837,76,80,76c6.075,0,11-4.925,11-11C91,61.689,89.53,58.727,87.215,56.71z"/><path fill="#fdfcef" d="M77.5,56.5V57h3v-0.5c0,0,4.242,0,5.5,0c2.485,0,4.5-2.015,4.5-4.5 c0-2.333-1.782-4.229-4.055-4.455C86.467,47.364,86.5,47.187,86.5,47c0-2.485-2.015-4.5-4.5-4.5 c-1.438,0-2.703,0.686-3.527,1.736C78.333,41.6,76.171,39.5,73.5,39.5c-2.761,0-5,2.239-5,5c0,0.446,0.077,0.87,0.187,1.282 C68.045,45.005,67.086,44.5,66,44.5c-1.781,0-3.234,1.335-3.455,3.055C62.364,47.533,62.187,47.5,62,47.5 c-2.485,0-4.5,2.015-4.5,4.5s2.015,4.5,4.5,4.5s9.5,0,9.5,0H77.5z"/><path fill="#472b29" d="M73.5,39c-3.033,0-5.5,2.467-5.5,5.5c0,0.016,0,0.031,0,0.047C67.398,44.192,66.71,44,66,44 c-1.831,0-3.411,1.261-3.858,3.005C62.095,47.002,62.048,47,62,47c-2.757,0-5,2.243-5,5s2.243,5,5,5h15.5 c0.276,0,0.5-0.224,0.5-0.5S77.776,56,77.5,56H62c-2.206,0-4-1.794-4-4s1.794-4,4-4c0.117,0,0.23,0.017,0.343,0.032l0.141,0.019 c0.021,0.003,0.041,0.004,0.062,0.004c0.246,0,0.462-0.185,0.495-0.437C63.232,46.125,64.504,45,66,45 c0.885,0,1.723,0.401,2.301,1.1c0.098,0.118,0.241,0.182,0.386,0.182c0.078,0,0.156-0.018,0.228-0.056 c0.209-0.107,0.314-0.346,0.254-0.573C69.054,45.218,69,44.852,69,44.5c0-2.481,2.019-4.5,4.5-4.5 c2.381,0,4.347,1.872,4.474,4.263c0.011,0.208,0.15,0.387,0.349,0.45c0.05,0.016,0.101,0.024,0.152,0.024 c0.15,0,0.296-0.069,0.392-0.192C79.638,43.563,80.779,43,82,43c2.206,0,4,1.794,4,4c0,0.117-0.017,0.23-0.032,0.343 l-0.019,0.141c-0.016,0.134,0.022,0.268,0.106,0.373s0.207,0.172,0.34,0.185C88.451,48.247,90,49.949,90,52c0,2.206-1.794,4-4,4 h-5.5c-0.276,0-0.5,0.224-0.5,0.5s0.224,0.5,0.5,0.5H86c2.757,0,5-2.243,5-5c0-2.397-1.689-4.413-4.003-4.877 C86.999,47.082,87,47.041,87,47c0-2.757-2.243-5-5-5c-1.176,0-2.293,0.416-3.183,1.164C78.219,40.76,76.055,39,73.5,39L73.5,39z"/><path fill="#472b29" d="M72,46c-1.403,0-2.609,0.999-2.913,2.341C68.72,48.119,68.301,48,67.875,48 c-1.202,0-2.198,0.897-2.353,2.068C65.319,50.022,65.126,50,64.938,50c-1.529,0-2.811,1.2-2.918,2.732 C62.01,52.87,62.114,52.99,62.251,53c0.006,0,0.012,0,0.018,0c0.13,0,0.24-0.101,0.249-0.232 c0.089-1.271,1.151-2.268,2.419-2.268c0.229,0,0.47,0.042,0.738,0.127c0.022,0.007,0.045,0.01,0.067,0.01 c0.055,0,0.11-0.02,0.156-0.054C65.962,50.537,66,50.455,66,50.375c0-1.034,0.841-1.875,1.875-1.875 c0.447,0,0.885,0.168,1.231,0.473c0.047,0.041,0.106,0.063,0.165,0.063c0.032,0,0.063-0.006,0.093-0.019 c0.088-0.035,0.148-0.117,0.155-0.212C69.623,47.512,70.712,46.5,72,46.5c0.208,0,0.425,0.034,0.682,0.107 c0.023,0.007,0.047,0.01,0.07,0.01c0.109,0,0.207-0.073,0.239-0.182c0.038-0.133-0.039-0.271-0.172-0.309 C72.517,46.04,72.256,46,72,46L72,46z M85.883,47.5c-1.326,0-2.508,0.897-2.874,2.182c-0.038,0.133,0.039,0.271,0.172,0.309 C83.205,49.997,83.228,50,83.25,50c0.109,0,0.209-0.072,0.24-0.182C83.795,48.748,84.779,48,85.883,48 c0.117,0,0.23,0.014,0.342,0.029c0.012,0.002,0.023,0.003,0.035,0.003c0.121,0,0.229-0.092,0.246-0.217 c0.019-0.137-0.077-0.263-0.214-0.281C86.158,47.516,86.022,47.5,85.883,47.5L85.883,47.5z"/><path fill="#fbb821" d="M50,28.952c-12.992,0-23.524,10.532-23.524,23.524S37.008,76,50,76s23.524-10.532,23.524-23.524 S62.992,28.952,50,28.952z"/><path fill="#472b29" d="M50,76.7c-13.356,0-24.224-10.867-24.224-24.224S36.644,28.252,50,28.252 s24.224,10.867,24.224,24.224S63.356,76.7,50,76.7z M50,29.652c-12.585,0-22.823,10.239-22.823,22.824S37.415,75.3,50,75.3 s22.823-10.239,22.823-22.824S62.585,29.652,50,29.652z"/><path fill="#77cbd2" d="M50,33.905c-10.257,0-18.571,8.315-18.571,18.571S39.743,71.048,50,71.048 s18.571-8.315,18.571-18.571c0-9.044-6.464-16.578-15.024-18.233"/><path fill="#0091ea" d="M61.534,53.878c0.222-0.039,0.44-0.077,0.655-0.112c0.008-0.001,0.016-0.003,0.024-0.004 c1.379-0.227,2.61-0.379,3.627-0.482c0-0.001,0-0.002,0-0.002c0.91-0.092,1.648-0.144,2.159-0.173 c-0.015-5.051-1.827-9.643-4.78-13.104c-2.922,0.918-5.248,2.343-6.878,3.565c-0.054,0.04-0.107,0.08-0.159,0.119 c-0.178,0.135-0.348,0.266-0.507,0.395c-0.114,0.091-0.216,0.176-0.32,0.263c-0.095,0.08-0.195,0.161-0.282,0.236 c-0.197,0.169-0.377,0.33-0.532,0.473c-0.712,2.313-2.171,4.801-4.454,7.076c-0.761,0.758-1.614,1.493-2.562,2.189v8.064 c0,0,0.516-1.008,1.627-2.317c2.273-2.678,5.397-4.497,8.811-5.323L61.534,53.878z"/><path fill="#0091ea" d="M54.339,65.802c-1.486,0-3.326-0.567-3.842-2.299C48.58,64.521,46.94,65.649,46,66.334V68h14.521 c2.247-1.887,4.063-4.266,5.252-6.994c-0.961-0.36-2.921-0.877-6.281-0.877C60.524,63.409,57.056,65.802,54.339,65.802"/><path fill="#0091ea" d="M57.976,38.818c0.368-0.196,0.756-0.39,1.162-0.577c-0.002-0.001-0.004-0.003-0.006-0.004 c0.584-0.269,1.204-0.526,1.868-0.756c-0.83-0.696-1.731-1.308-2.7-1.812c-0.973,0.45-2.19,1.069-3.348,1.818 c0.55,0.688,0.836,1.608,0.861,2.657c0.213-0.15,0.442-0.304,0.684-0.46c0.013-0.009,0.027-0.017,0.041-0.026"/><path fill="#472b29" d="M55.813,40.27c-0.02,0-0.038-0.004-0.057-0.013c-0.041-0.021-0.067-0.063-0.068-0.109 c-0.024-1.037-0.313-1.93-0.834-2.582c-0.022-0.028-0.031-0.063-0.025-0.098c0.005-0.035,0.025-0.066,0.055-0.085 c0.973-0.629,2.104-1.244,3.363-1.827c0.034-0.017,0.076-0.016,0.11,0.002c0.951,0.494,1.867,1.109,2.723,1.827 c0.035,0.029,0.051,0.074,0.043,0.118s-0.04,0.081-0.082,0.096c-0.599,0.207-1.194,0.447-1.818,0.733 c-0.009,0.009-0.02,0.017-0.032,0.022c-0.386,0.177-0.774,0.37-1.155,0.574c-0.062,0.033-0.137,0.009-0.169-0.051 c-0.032-0.061-0.01-0.137,0.052-0.169c0.372-0.199,0.752-0.388,1.13-0.563c0.009-0.009,0.02-0.017,0.032-0.022 c0.573-0.264,1.121-0.489,1.67-0.686c-0.776-0.633-1.601-1.18-2.453-1.628c-1.178,0.548-2.24,1.123-3.163,1.711 c0.466,0.632,0.738,1.453,0.795,2.393c0.16-0.109,0.327-0.221,0.501-0.332l0.044-0.028c0.056-0.035,0.136-0.017,0.171,0.042 c0.036,0.059,0.018,0.136-0.042,0.172l-0.038,0.024c-0.239,0.154-0.468,0.307-0.679,0.457 C55.864,40.262,55.839,40.27,55.813,40.27z"/><path fill="#472b29" d="M50,71.548c-10.516,0-19.071-8.556-19.071-19.072S39.484,33.405,50,33.405 c0.276,0,0.5,0.224,0.5,0.5s-0.224,0.5-0.5,0.5c-9.965,0-18.071,8.107-18.071,18.071c0,9.965,8.106,18.072,18.071,18.072 s18.071-8.107,18.071-18.072c0-8.643-6.148-16.104-14.619-17.742c-0.271-0.052-0.448-0.314-0.396-0.585 c0.054-0.272,0.317-0.448,0.586-0.396c8.94,1.729,15.43,9.603,15.43,18.724C69.071,62.992,60.516,71.548,50,71.548z"/><path fill="#472b29" d="M47.523,62.506c-0.01,0-0.02-0.001-0.029-0.003c-0.057-0.014-0.096-0.064-0.096-0.122v-8.063 c0-0.04,0.019-0.077,0.051-0.101c0.915-0.672,1.772-1.404,2.549-2.177c2.133-2.125,3.662-4.553,4.423-7.024 c0.006-0.021,0.019-0.04,0.034-0.055c0.156-0.145,0.338-0.306,0.535-0.476c0.063-0.054,0.133-0.111,0.202-0.168l0.083-0.069 c0.104-0.087,0.207-0.173,0.322-0.265c0.159-0.129,0.33-0.261,0.509-0.397l0.16-0.12c2.151-1.613,4.479-2.819,6.916-3.584 c0.045-0.015,0.101,0,0.132,0.038c3.088,3.619,4.796,8.302,4.811,13.185c0,0.066-0.052,0.122-0.118,0.125 c-0.66,0.037-1.396,0.096-2.132,0.17c-0.007,0.002-0.015,0.003-0.021,0.004c-1.2,0.122-2.418,0.284-3.619,0.481 c-0.219,0.036-0.414,0.069-0.614,0.104c-0.069,0.014-0.133-0.034-0.145-0.102s0.033-0.133,0.102-0.145 c0.2-0.035,0.397-0.068,0.592-0.101c1.224-0.201,2.439-0.363,3.638-0.485c0.007-0.002,0.015-0.003,0.021-0.004 c0.713-0.072,1.4-0.128,2.046-0.167c-0.04-4.753-1.705-9.306-4.695-12.842c-2.382,0.759-4.656,1.943-6.762,3.521l-0.159,0.119 c-0.176,0.134-0.345,0.264-0.503,0.393c-0.114,0.091-0.217,0.175-0.319,0.262l-0.084,0.07c-0.068,0.056-0.136,0.112-0.197,0.165 c-0.186,0.16-0.356,0.311-0.505,0.447c-0.775,2.5-2.323,4.952-4.476,7.096c-0.771,0.768-1.62,1.495-2.525,2.164v7.53 c0.253-0.416,0.714-1.111,1.407-1.928c1.956-2.304,4.584-4.035,7.603-5.005c0.066-0.019,0.136,0.015,0.157,0.081 c0.021,0.065-0.016,0.136-0.081,0.157c-2.974,0.957-5.563,2.661-7.487,4.929c-1.088,1.281-1.607,2.283-1.612,2.293 C47.613,62.48,47.569,62.506,47.523,62.506z"/><path fill="#472b29" d="M57.963,54.866c-0.057,0-0.107-0.039-0.121-0.096c-0.017-0.067,0.024-0.135,0.092-0.151l1.08-0.261 c0.066-0.016,0.135,0.026,0.15,0.092c0.017,0.067-0.024,0.135-0.092,0.151l-1.08,0.261C57.982,54.865,57.973,54.866,57.963,54.866 z"/><path fill="#472b29" d="M55.722,65.738c-0.056,0-0.105-0.037-0.121-0.093c-0.018-0.067,0.022-0.135,0.089-0.153 c0.338-0.09,0.673-0.211,0.996-0.359c0.061-0.029,0.137-0.001,0.165,0.062c0.029,0.063,0.002,0.137-0.061,0.166 c-0.336,0.154-0.685,0.28-1.036,0.373C55.743,65.737,55.732,65.738,55.722,65.738z"/><path fill="#472b29" d="M60.521,68.125H46c-0.069,0-0.125-0.056-0.125-0.125v-1.667c0-0.04,0.02-0.078,0.052-0.101 c1.027-0.749,2.645-1.849,4.512-2.84c0.034-0.017,0.074-0.019,0.106-0.005c0.035,0.014,0.062,0.043,0.072,0.08 c0.485,1.629,2.241,2.21,3.723,2.21c0.069,0,0.125,0.056,0.125,0.125s-0.056,0.125-0.125,0.125c-1.527,0-3.334-0.593-3.915-2.244 c-1.769,0.95-3.301,1.989-4.3,2.714v1.478h14.351c2.21-1.865,3.98-4.212,5.13-6.797c-1.065-0.379-2.932-0.808-5.946-0.823 c0.611,2.238-0.817,3.973-2.39,4.861c-0.062,0.035-0.137,0.012-0.17-0.047c-0.034-0.06-0.014-0.136,0.047-0.17 c1.524-0.861,2.91-2.556,2.227-4.731c-0.012-0.038-0.005-0.08,0.019-0.111c0.023-0.032,0.061-0.051,0.101-0.051 c3.272,0,5.246,0.481,6.325,0.885c0.032,0.012,0.058,0.037,0.071,0.068s0.013,0.067-0.001,0.099 c-1.168,2.682-2.996,5.116-5.286,7.04C60.579,68.115,60.551,68.125,60.521,68.125z"/><g><path fill="#fcc938" d="M32.667,24h14.857v44.571h24.762L66.095,76H32.667l3.714-4.952V28.952L32.667,24z"/><path fill="#472b29" d="M66.096,76.7H32.667c-0.266,0-0.508-0.15-0.626-0.387c-0.119-0.237-0.093-0.521,0.066-0.733 l3.573-4.766V29.186l-3.573-4.766c-0.159-0.212-0.186-0.496-0.066-0.733c0.118-0.237,0.36-0.387,0.626-0.387h14.856 c0.387,0,0.7,0.313,0.7,0.7v43.871h24.063c0.271,0,0.519,0.157,0.634,0.403s0.078,0.536-0.096,0.745l-6.19,7.429 C66.5,76.608,66.304,76.7,66.096,76.7z M34.067,75.3h31.7l5.024-6.028H47.523c-0.387,0-0.7-0.313-0.7-0.7V24.7H34.067l2.873,3.832 c0.092,0.121,0.141,0.269,0.141,0.42v42.096c0,0.151-0.049,0.299-0.141,0.42L34.067,75.3z"/></g><g><path fill="#fff" d="M77.319,30.8h-10c-0.276,0-0.5-0.224-0.5-0.5s0.224-0.5,0.5-0.5h10c0.276,0,0.5,0.224,0.5,0.5 S77.595,30.8,77.319,30.8z M81.319,30.8h-2c-0.276,0-0.5-0.224-0.5-0.5s0.224-0.5,0.5-0.5h2c0.276,0,0.5,0.224,0.5,0.5 S81.595,30.8,81.319,30.8z M86.319,32.8h-10c-0.276,0-0.5-0.224-0.5-0.5c0-0.276,0.224-0.5,0.5-0.5h10c0.276,0,0.5,0.224,0.5,0.5 C86.819,32.576,86.596,32.8,86.319,32.8z M74.319,32.8h-1c-0.276,0-0.5-0.224-0.5-0.5c0-0.276,0.224-0.5,0.5-0.5h1 c0.276,0,0.5,0.224,0.5,0.5C74.819,32.576,74.595,32.8,74.319,32.8z M71.289,32.8h-1.97c-0.276,0-0.5-0.224-0.5-0.5 c0-0.276,0.224-0.5,0.5-0.5h1.97c0.276,0,0.5,0.224,0.5,0.5C71.789,32.576,71.565,32.8,71.289,32.8z M80.319,28.8h-5 c-0.276,0-0.5-0.224-0.5-0.5s0.224-0.5,0.5-0.5h5c0.276,0,0.5,0.224,0.5,0.5S80.596,28.8,80.319,28.8z M77.319,34.8h-2 c-0.276,0-0.5-0.224-0.5-0.5c0-0.276,0.224-0.5,0.5-0.5h2c0.276,0,0.5,0.224,0.5,0.5C77.819,34.576,77.595,34.8,77.319,34.8z"/></g><path fill="#fff" d="M15.5,51h-10C5.224,51,5,50.776,5,50.5S5.224,50,5.5,50h10c0.276,0,0.5,0.224,0.5,0.5	S15.777,51,15.5,51z M18.5,51h-1c-0.276,0-0.5-0.224-0.5-0.5s0.224-0.5,0.5-0.5h1c0.276,0,0.5,0.224,0.5,0.5S18.777,51,18.5,51z M23.491,53H14.5c-0.276,0-0.5-0.224-0.5-0.5s0.224-0.5,0.5-0.5h8.991c0.276,0,0.5,0.224,0.5,0.5S23.767,53,23.491,53z M12.5,53h-1	c-0.276,0-0.5-0.224-0.5-0.5s0.224-0.5,0.5-0.5h1c0.276,0,0.5,0.224,0.5,0.5S12.777,53,12.5,53z M9.5,53h-2	C7.224,53,7,52.776,7,52.5S7.224,52,7.5,52h2c0.276,0,0.5,0.224,0.5,0.5S9.777,53,9.5,53z M15.5,55h-2c-0.276,0-0.5-0.224-0.5-0.5	s0.224-0.5,0.5-0.5h2c0.276,0,0.5,0.224,0.5,0.5S15.776,55,15.5,55z M18.5,46c-0.177,0-0.823,0-1,0c-0.276,0-0.5,0.224-0.5,0.5	s0.224,0.5,0.5,0.5c0.177,0,0.823,0,1,0c0.276,0,0.5-0.224,0.5-0.5S18.776,46,18.5,46z M18.5,48c-0.177,0-4.823,0-5,0	c-0.276,0-0.5,0.224-0.5,0.5s0.224,0.5,0.5,0.5c0.177,0,4.823,0,5,0c0.276,0,0.5-0.224,0.5-0.5S18.776,48,18.5,48z M23.5,50	c-0.177,0-2.823,0-3,0c-0.276,0-0.5,0.224-0.5,0.5s0.224,0.5,0.5,0.5c0.177,0,2.823,0,3,0c0.276,0,0.5-0.224,0.5-0.5	S23.776,50,23.5,50z"/><g><path fill="#fdfcef" d="M36.5,72.5c0,0,1.567,0,3.5,0s3.5-1.567,3.5-3.5c0-1.781-1.335-3.234-3.055-3.455 C40.473,65.366,40.5,65.187,40.5,65c0-1.933-1.567-3.5-3.5-3.5c-1.032,0-1.95,0.455-2.59,1.165 c-0.384-1.808-1.987-3.165-3.91-3.165c-2.209,0-4,1.791-4,4c0,0.191,0.03,0.374,0.056,0.558C26.128,63.714,25.592,63.5,25,63.5 c-1.228,0-2.245,0.887-2.455,2.055C22.366,65.527,22.187,65.5,22,65.5c-1.933,0-3.5,1.567-3.5,3.5s1.567,3.5,3.5,3.5s7.5,0,7.5,0 V73h7V72.5z"/><path fill="#472b29" d="M38.25,68C38.112,68,38,67.888,38,67.75c0-1.223,0.995-2.218,2.218-2.218 c0.034,0.009,0.737-0.001,1.244,0.136c0.133,0.036,0.212,0.173,0.176,0.306c-0.036,0.134-0.173,0.213-0.306,0.176 c-0.444-0.12-1.1-0.12-1.113-0.118c-0.948,0-1.719,0.771-1.719,1.718C38.5,67.888,38.388,68,38.25,68z M31.5,72 c-0.276,0-0.5,0.224-0.5,0.5s0.224,0.5,0.5,0.5s0.5-0.224,0.5-0.5S31.776,72,31.5,72z"/><path fill="#472b29" d="M40,73h-3.5c-0.276,0-0.5-0.224-0.5-0.5s0.224-0.5,0.5-0.5H40c1.654,0,3-1.346,3-3 c0-1.496-1.125-2.768-2.618-2.959c-0.134-0.018-0.255-0.088-0.336-0.196s-0.115-0.244-0.094-0.377C39.975,65.314,40,65.16,40,65 c0-1.654-1.346-3-3-3c-0.85,0-1.638,0.355-2.219,1c-0.125,0.139-0.321,0.198-0.5,0.148c-0.182-0.049-0.321-0.195-0.36-0.379 C33.58,61.165,32.141,60,30.5,60c-1.93,0-3.5,1.57-3.5,3.5c0,0.143,0.021,0.28,0.041,0.418c0.029,0.203-0.063,0.438-0.242,0.54 s-0.396,0.118-0.556-0.01C25.878,64.155,25.449,64,25,64c-0.966,0-1.792,0.691-1.963,1.644c-0.048,0.267-0.296,0.446-0.569,0.405 C22.314,66.025,22.16,66,22,66c-1.654,0-3,1.346-3,3s1.346,3,3,3h7.5c0.276,0,0.5,0.224,0.5,0.5S29.776,73,29.5,73H22 c-2.206,0-4-1.794-4-4s1.794-4,4-4c0.059,0,0.116,0.002,0.174,0.006C22.588,63.82,23.711,63,25,63c0.349,0,0.689,0.061,1.011,0.18 C26.176,60.847,28.126,59,30.5,59c1.831,0,3.466,1.127,4.153,2.774C35.333,61.276,36.155,61,37,61c2.206,0,4,1.794,4,4 c0,0.048-0.001,0.095-0.004,0.142C42.739,65.59,44,67.169,44,69C44,71.206,42.206,73,40,73z"/><path fill="#472b29" d="M34.5,72c-0.159,0-0.841,0-1,0c-0.276,0-0.5,0.224-0.5,0.5s0.224,0.5,0.5,0.5c0.159,0,0.841,0,1,0 c0.276,0,0.5-0.224,0.5-0.5S34.776,72,34.5,72z"/></g></svg>